<svg width="88" height="16" viewBox="0 0 88 16" fill="none" xmlns="http://www.w3.org/2000/svg">
<path d="M5.42045 15H0.264205V0.454545H5.46307C6.92614 0.454545 8.18561 0.745738 9.24148 1.32812C10.2973 1.90578 11.1094 2.73674 11.6776 3.82102C12.2505 4.9053 12.5369 6.20265 12.5369 7.71307C12.5369 9.22822 12.2505 10.5303 11.6776 11.6193C11.1094 12.7083 10.2926 13.544 9.22727 14.1264C8.16667 14.7088 6.89773 15 5.42045 15ZM3.33949 12.3651H5.29261C6.2017 12.3651 6.96638 12.2041 7.58665 11.8821C8.21165 11.5554 8.6804 11.0511 8.9929 10.3693C9.31013 9.68277 9.46875 8.79735 9.46875 7.71307C9.46875 6.63826 9.31013 5.75994 8.9929 5.07812C8.6804 4.39631 8.21402 3.89441 7.59375 3.57244C6.97348 3.25047 6.20881 3.08949 5.29972 3.08949H3.33949V12.3651ZM14.815 15V0.454545H20.5536C21.6521 0.454545 22.5896 0.651041 23.3661 1.04403C24.1474 1.43229 24.7416 1.9839 25.1488 2.69886C25.5607 3.40909 25.7667 4.24479 25.7667 5.20597C25.7667 6.17187 25.5584 7.00284 25.1417 7.69886C24.725 8.39015 24.1213 8.92045 23.3306 9.28977C22.5446 9.65909 21.5929 9.84375 20.4755 9.84375H16.6332V7.37216H19.9783C20.5655 7.37216 21.0531 7.29167 21.4414 7.13068C21.8297 6.9697 22.1185 6.72822 22.3079 6.40625C22.502 6.08428 22.5991 5.68419 22.5991 5.20597C22.5991 4.72301 22.502 4.31581 22.3079 3.98438C22.1185 3.65294 21.8273 3.40199 21.4343 3.23153C21.046 3.05634 20.556 2.96875 19.9641 2.96875H17.8903V15H14.815ZM22.6701 8.38068L26.2852 15H22.8903L19.3533 8.38068H22.6701ZM26.4822 0.454545H29.9268L33.2436 6.71875H33.3857L36.7024 0.454545H40.147L34.8416 9.85795V15H31.7876V9.85795L26.4822 0.454545ZM53.7816 5.54688H50.6708C50.614 5.14441 50.498 4.78693 50.3228 4.47443C50.1476 4.1572 49.9227 3.88731 49.6481 3.66477C49.3735 3.44223 49.0562 3.27178 48.6964 3.15341C48.3413 3.03504 47.9554 2.97585 47.5387 2.97585C46.7859 2.97585 46.1301 3.16288 45.5714 3.53693C45.0127 3.90625 44.5794 4.44602 44.2717 5.15625C43.9639 5.86174 43.81 6.71875 43.81 7.72727C43.81 8.7642 43.9639 9.63542 44.2717 10.3409C44.5842 11.0464 45.0198 11.5791 45.5785 11.9389C46.1372 12.2988 46.7835 12.4787 47.5174 12.4787C47.9293 12.4787 48.3105 12.4242 48.6609 12.3153C49.016 12.2064 49.3308 12.0478 49.6055 11.8395C49.8801 11.6264 50.1074 11.3684 50.2873 11.0653C50.4719 10.7623 50.5998 10.4167 50.6708 10.0284L53.7816 10.0426C53.7011 10.7102 53.4999 11.3542 53.1779 11.9744C52.8607 12.59 52.4322 13.1416 51.8924 13.6293C51.3574 14.1122 50.7182 14.4957 49.9748 14.7798C49.2362 15.0592 48.4004 15.1989 47.4677 15.1989C46.1703 15.1989 45.0103 14.9053 43.9876 14.3182C42.9696 13.7311 42.1647 12.8812 41.5728 11.7685C40.9857 10.6558 40.6921 9.30871 40.6921 7.72727C40.6921 6.1411 40.9904 4.79167 41.587 3.67898C42.1836 2.56629 42.9933 1.71875 44.016 1.13636C45.0387 0.549242 46.1893 0.255681 47.4677 0.255681C48.3105 0.255681 49.0917 0.374053 49.8114 0.610795C50.5359 0.847538 51.1774 1.19318 51.7362 1.64773C52.2949 2.09754 52.7494 2.64915 53.0998 3.30256C53.4549 3.95597 53.6822 4.70407 53.7816 5.54688ZM59.0621 0.454545V15H55.9869V0.454545H59.0621ZM61.0384 2.99006V0.454545H72.9844V2.99006H68.5312V15H65.4915V2.99006H61.0384ZM74.0994 0.454545H77.544L80.8608 6.71875H81.0028L84.3196 0.454545H87.7642L82.4588 9.85795V15H79.4048V9.85795L74.0994 0.454545Z" fill="white" style="mix-blend-mode:difference"/>
</svg>
