<svg width="1417" height="166" viewBox="0 0 1417 166" fill="none" xmlns="http://www.w3.org/2000/svg">
<path d="M58.2301 166H0.222301V2.36363H58.7095C75.169 2.36363 89.3381 5.63956 101.217 12.1914C113.095 18.69 122.23 28.0383 128.623 40.2365C135.068 52.4347 138.29 67.0298 138.29 84.022C138.29 101.067 135.068 115.716 128.623 127.967C122.23 140.219 113.042 149.62 101.057 156.172C89.125 162.724 74.8494 166 58.2301 166ZM34.8192 136.357H56.7919C67.0192 136.357 75.6218 134.546 82.5998 130.924C89.631 127.248 94.9045 121.575 98.4201 113.905C101.989 106.181 103.773 96.2202 103.773 84.022C103.773 71.9304 101.989 62.0494 98.4201 54.3789C94.9045 46.7085 89.6577 41.0621 82.6797 37.44C75.7017 33.8178 67.0991 32.0067 56.8718 32.0067H34.8192V136.357ZM235.919 166V2.36363H300.478C312.836 2.36363 323.383 4.57421 332.119 8.99538C340.908 13.3633 347.593 19.5689 352.174 27.6122C356.808 35.6023 359.125 45.0039 359.125 55.8171C359.125 66.6836 356.782 76.032 352.094 83.8622C347.407 91.6392 340.615 97.6051 331.719 101.76C322.877 105.915 312.17 107.992 299.599 107.992H256.373V80.1868H294.006C300.611 80.1868 306.098 79.2812 310.466 77.4702C314.834 75.6591 318.083 72.9425 320.214 69.3203C322.398 65.6982 323.49 61.1971 323.49 55.8171C323.49 50.3839 322.398 45.8029 320.214 42.0742C318.083 38.3455 314.807 35.5224 310.386 33.6048C306.018 31.6339 300.505 30.6484 293.847 30.6484H270.516V166H235.919ZM324.289 91.5327L364.958 166H326.766L286.975 91.5327H324.289ZM439.175 2.36363H477.927L515.241 72.8359H516.839L554.152 2.36363H592.904L533.218 108.152V166H498.861V108.152L439.175 2.36363ZM818.293 59.6523H783.297C782.657 55.1246 781.352 51.103 779.381 47.5874C777.411 44.0185 774.88 40.9822 771.791 38.4787C768.701 35.9751 765.133 34.0575 761.084 32.7258C757.089 31.3942 752.748 30.7283 748.06 30.7283C739.591 30.7283 732.214 32.8324 725.928 37.0405C719.642 41.1953 714.769 47.2678 711.306 55.2578C707.844 63.1946 706.113 72.8359 706.113 84.1818C706.113 95.8473 707.844 105.648 711.306 113.585C714.822 121.522 719.722 127.515 726.008 131.563C732.293 135.611 739.564 137.635 747.821 137.635C752.455 137.635 756.743 137.023 760.685 135.798C764.68 134.572 768.222 132.788 771.312 130.444C774.401 128.047 776.958 125.144 778.982 121.735C781.059 118.326 782.498 114.437 783.297 110.07L818.293 110.229C817.388 117.74 815.124 124.984 811.502 131.962C807.933 138.887 803.112 145.093 797.04 150.579C791.02 156.012 783.829 160.327 775.466 163.523C767.157 166.666 757.755 168.237 747.261 168.237C732.666 168.237 719.616 164.935 708.11 158.33C696.658 151.724 687.602 142.163 680.944 129.645C674.339 117.127 671.036 101.973 671.036 84.1818C671.036 66.3374 674.392 51.1563 681.104 38.6385C687.815 26.1207 696.924 16.5859 708.43 10.0341C719.935 3.42897 732.879 0.126414 747.261 0.126414C756.743 0.126414 765.532 1.45809 773.629 4.12144C781.778 6.7848 788.996 10.6733 795.282 15.7869C801.567 20.8473 806.681 27.0529 810.623 34.4038C814.618 41.7546 817.174 50.1708 818.293 59.6523ZM949.699 2.36363V166H915.102V2.36363H949.699ZM1043.93 30.8881V2.36363H1178.32V30.8881H1128.23V166H1094.03V30.8881H1043.93ZM1262.87 2.36363H1301.62L1338.93 72.8359H1340.53L1377.85 2.36363H1416.6L1356.91 108.152V166H1322.55V108.152L1262.87 2.36363Z" fill="black" fill-opacity="0.1"/>
</svg>
