<svg width="30" height="30" viewBox="0 0 30 30" fill="none" xmlns="http://www.w3.org/2000/svg">
<g clip-path="url(#clip0_149_75)">
<path d="M15 0C6.725 0 0 6.725 0 15C0 23.275 6.725 30 15 30C23.275 30 30 23.275 30 15C30 6.725 23.275 0 15 0ZM15 27.5C8.1125 27.5 2.5 21.8875 2.5 15C2.5 8.1125 8.1125 2.5 15 2.5C21.8875 2.5 27.5 8.1125 27.5 15C27.5 21.8875 21.8875 27.5 15 27.5Z" fill="black" style="mix-blend-mode:difference"/>
<path d="M20.625 10.625C20.625 7.525 18.1 5 15 5C11.9 5 9.375 7.525 9.375 10.625C9.375 13.725 11.9 16.25 15 16.25C18.1 16.25 20.625 13.725 20.625 10.625ZM15 13.75C13.275 13.75 11.875 12.35 11.875 10.625C11.875 8.9 13.275 7.5 15 7.5C16.725 7.5 18.125 8.9 18.125 10.625C18.125 12.35 16.725 13.75 15 13.75ZM15 16.25C11.275 16.25 7.9625 18.6125 6.7375 22.125C6.5125 22.775 6.85 23.4875 7.5125 23.7125C7.65 23.7625 7.7875 23.7875 7.925 23.7875C8.4375 23.7875 8.925 23.4625 9.1 22.95C9.975 20.4375 12.35 18.7625 15 18.7625C17.65 18.7625 19.975 20.4125 20.875 22.8625C21.1125 23.5125 21.8375 23.85 22.475 23.6C23.125 23.3625 23.45 22.65 23.2125 22C21.9514 18.5789 18.6576 16.2678 15.0125 16.2625C15.0056 16.2625 15 16.2569 15 16.25V16.25Z" fill="black" style="mix-blend-mode:difference"/>
</g>
<defs>
<clipPath id="clip0_149_75">
<rect width="30" height="30" rx="15" fill="white"/>
</clipPath>
</defs>
</svg>
